<svg width="249" height="80" viewBox="0 0 249 80" fill="none" xmlns="http://www.w3.org/2000/svg">
<path d="M0.741211 61.7044V6.81833H23.4198C23.9535 6.81833 24.6395 6.84374 25.4781 6.89456C26.3166 6.91997 27.0916 6.9962 27.8031 7.12325C30.9794 7.60604 33.5966 8.66057 35.6549 10.2868C37.7385 11.9131 39.2758 13.9713 40.2668 16.4615C41.2832 18.9263 41.7914 21.6706 41.7914 24.6944C41.7914 27.6928 41.2832 30.4371 40.2668 32.9273C39.2504 35.3921 37.7004 37.4377 35.6168 39.0639C33.5585 40.6902 30.954 41.7447 27.8031 42.2275C27.0916 42.3291 26.3039 42.4054 25.44 42.4562C24.6014 42.507 23.9281 42.5324 23.4198 42.5324H9.92701V61.7044H0.741211ZM9.92701 33.9565H23.0387C23.5469 33.9565 24.1186 33.9311 24.7539 33.8802C25.3891 33.8294 25.9736 33.7278 26.5072 33.5753C28.0318 33.1942 29.2261 32.5208 30.09 31.5552C30.9794 30.5896 31.6019 29.497 31.9577 28.2773C32.3388 27.0576 32.5294 25.8633 32.5294 24.6944C32.5294 23.5256 32.3388 22.3313 31.9577 21.1116C31.6019 19.8665 30.9794 18.7611 30.09 17.7955C29.2261 16.83 28.0318 16.1566 26.5072 15.7754C25.9736 15.623 25.3891 15.534 24.7539 15.5086C24.1186 15.4578 23.5469 15.4324 23.0387 15.4324H9.92701V33.9565Z" fill="#4F3366"/>
<path d="M47.1407 61.7044V5.67487H56.3265V61.7044H47.1407Z" fill="#4F3366"/>
<path d="M83.4092 62.8479C79.242 62.8479 75.5829 61.9458 72.432 60.1417C69.2811 58.3376 66.8163 55.8347 65.0376 52.633C63.2843 49.4313 62.4077 45.7468 62.4077 41.5795C62.4077 37.0819 63.2716 33.1814 64.9995 29.8781C66.7274 26.5494 69.1287 23.9702 72.2033 22.1407C75.278 20.3112 78.8354 19.3964 82.8756 19.3964C87.1445 19.3964 90.7655 20.4001 93.7385 22.4075C96.7369 24.3895 98.9603 27.1973 100.409 30.831C101.857 34.4647 102.403 38.7463 102.048 43.6759H92.9381V40.3217C92.9127 35.8495 92.1249 32.5843 90.5749 30.5261C89.0249 28.4678 86.5855 27.4387 83.2568 27.4387C79.4961 27.4387 76.7009 28.6076 74.8714 30.9453C73.0419 33.2577 72.1271 36.6499 72.1271 41.1221C72.1271 45.2894 73.0419 48.5165 74.8714 50.8034C76.7009 53.0904 79.369 54.2338 82.8756 54.2338C85.1371 54.2338 87.081 53.7383 88.7073 52.7473C90.3589 51.7309 91.6294 50.2698 92.5188 48.3641L101.59 51.1084C100.015 54.8183 97.5754 57.7023 94.2721 59.7606C90.9942 61.8188 87.3732 62.8479 83.4092 62.8479ZM69.2303 43.6759V36.7389H97.55V43.6759H69.2303Z" fill="#4F3366"/>
<path d="M101.404 79.9998V71.3857H103.348C105.584 71.3857 107.173 70.8648 108.113 69.823C109.053 68.7812 109.523 67.2439 109.523 65.211V20.5399H118.671V69.3275C118.671 72.6562 117.692 75.2608 115.736 77.1412C113.805 79.0469 111.111 79.9998 107.655 79.9998H101.404Z" fill="#4F3366"/>
<path d="M147.226 14.632H140.251L146.158 0.529297H153.134L147.226 14.632ZM137.926 62.8479C134.952 62.8479 132.437 62.2889 130.379 61.1708C128.32 60.0274 126.758 58.5154 125.69 56.6351C124.649 54.7547 124.128 52.6838 124.128 50.4223C124.128 48.4403 124.458 46.6616 125.119 45.0861C125.779 43.4853 126.796 42.1131 128.168 40.9697C129.54 39.8008 131.319 38.8479 133.504 38.111C135.156 37.5774 137.087 37.0946 139.298 36.6627C141.534 36.2307 143.948 35.8368 146.54 35.4811C149.157 35.0999 151.888 34.6934 154.734 34.2614L151.456 36.129C151.482 33.2831 150.847 31.1867 149.551 29.84C148.255 28.4933 146.069 27.8199 142.995 27.8199C141.14 27.8199 139.348 28.2519 137.621 29.1158C135.893 29.9798 134.686 31.4663 134 33.5753L125.614 30.9453C126.631 27.4641 128.562 24.669 131.408 22.56C134.279 20.4509 138.141 19.3964 142.995 19.3964C146.654 19.3964 149.868 19.9935 152.638 21.1878C155.433 22.3821 157.504 24.3387 158.851 27.0576C159.588 28.506 160.032 29.9925 160.185 31.5171C160.337 33.0163 160.414 34.6552 160.414 36.434V61.7044H152.371V52.7854L153.705 54.2338C151.85 57.2068 149.678 59.3921 147.188 60.7897C144.723 62.1618 141.635 62.8479 137.926 62.8479ZM139.755 55.5298C141.839 55.5298 143.617 55.1613 145.091 54.4244C146.565 53.6875 147.734 52.7854 148.598 51.7182C149.487 50.651 150.084 49.6473 150.389 48.7071C150.872 47.5382 151.139 46.2042 151.19 44.705C151.266 43.1804 151.304 41.948 151.304 41.0078L154.125 41.8463C151.355 42.2783 148.979 42.6595 146.997 42.9898C145.015 43.3201 143.312 43.6378 141.889 43.9427C140.467 44.2222 139.209 44.5398 138.116 44.8956C137.049 45.2767 136.147 45.7214 135.41 46.2296C134.673 46.7378 134.101 47.3222 133.695 47.9829C133.314 48.6436 133.123 49.4186 133.123 50.3079C133.123 51.3244 133.377 52.2264 133.885 53.0141C134.393 53.7764 135.13 54.3863 136.096 54.8437C137.087 55.3011 138.307 55.5298 139.755 55.5298Z" fill="#4F3366"/>
<path d="M183.791 62.8479C180.005 62.8479 176.702 61.895 173.881 59.9892C171.061 58.0835 168.876 55.4916 167.326 52.2137C165.776 48.9358 165.001 45.2386 165.001 41.1221C165.001 36.9549 165.776 33.245 167.326 29.9925C168.901 26.7145 171.124 24.1354 173.996 22.255C176.867 20.3493 180.247 19.3964 184.134 19.3964C188.048 19.3964 191.326 20.3493 193.968 22.255C196.636 24.1354 198.656 26.7145 200.029 29.9925C201.401 33.2704 202.087 36.9803 202.087 41.1221C202.087 45.2132 201.401 48.9104 200.029 52.2137C198.656 55.4916 196.611 58.0835 193.892 59.9892C191.173 61.895 187.806 62.8479 183.791 62.8479ZM185.202 54.615C187.666 54.615 189.648 54.056 191.148 52.9379C192.672 51.7944 193.778 50.2063 194.464 48.1735C195.175 46.1407 195.531 43.7902 195.531 41.1221C195.531 38.4287 195.175 36.0782 194.464 34.0708C193.778 32.038 192.698 30.4626 191.224 29.3445C189.75 28.201 187.844 27.6293 185.507 27.6293C183.042 27.6293 181.009 28.2392 179.408 29.4588C177.807 30.6531 176.626 32.2794 175.863 34.3376C175.101 36.3704 174.72 38.6319 174.72 41.1221C174.72 43.6378 175.088 45.9247 175.825 47.9829C176.588 50.0157 177.744 51.6293 179.294 52.8236C180.844 54.0178 182.813 54.615 185.202 54.615ZM195.531 61.7044V32.813H194.387V6.81833H203.649V61.7044H195.531Z" fill="#4F3366"/>
<path d="M216.699 79.9998L224.627 58.2359L224.78 64.6393L206.827 20.5399H216.394L229.125 53.1666H226.685L239.073 20.5399H248.259L225.313 79.9998H216.699Z" fill="#4F3366"/>
<path d="M111.545 14.2933L108.121 11.7874L111.109 8.23917L106.617 7.01633L107.923 2.94686L112.218 4.73101L111.921 0H116.156L115.859 4.73101L120.134 2.94686L121.44 7.01633L116.967 8.23917L119.936 11.7874L116.512 14.2933L114.038 10.3641L111.545 14.2933Z" fill="#4F3366"/>
</svg>
