<svg width="90" height="24" viewBox="0 0 90 24" fill="none" xmlns="http://www.w3.org/2000/svg">
<path d="M0 18.5109V2.04492H6.80364C6.96372 2.04492 7.16955 2.05255 7.42111 2.06779C7.67267 2.07542 7.90518 2.09829 8.11862 2.1364C9.07151 2.28124 9.85669 2.5976 10.4742 3.08548C11.0993 3.57336 11.5605 4.19083 11.8578 4.9379C12.1627 5.67734 12.3152 6.50064 12.3152 7.40779C12.3152 8.30732 12.1627 9.13062 11.8578 9.87768C11.5528 10.6171 11.0878 11.2308 10.4627 11.7187C9.84526 12.2065 9.06389 12.5229 8.11862 12.6677C7.90518 12.6982 7.66886 12.7211 7.40967 12.7364C7.15811 12.7516 6.9561 12.7592 6.80364 12.7592H2.75576V18.5109H0ZM2.75576 10.1864H6.68929C6.84175 10.1864 7.01327 10.1788 7.20385 10.1635C7.39443 10.1483 7.56976 10.1178 7.72984 10.0721C8.18723 9.95772 8.54552 9.75571 8.8047 9.46603C9.07151 9.17635 9.25828 8.84856 9.365 8.48265C9.47935 8.11674 9.53652 7.75845 9.53652 7.40779C9.53652 7.05713 9.47935 6.69884 9.365 6.33293C9.25828 5.9594 9.07151 5.62779 8.8047 5.33811C8.54552 5.04843 8.18723 4.84642 7.72984 4.73207C7.56976 4.68634 7.39443 4.65966 7.20385 4.65203C7.01327 4.63679 6.84175 4.62916 6.68929 4.62916H2.75576V10.1864Z" fill="#4F3366"/>
<path d="M13.9199 18.5109V1.70188H16.6757V18.5109H13.9199Z" fill="#4F3366"/>
<path d="M24.8006 18.8539C23.5504 18.8539 22.4526 18.5833 21.5074 18.042C20.5621 17.5008 19.8227 16.7499 19.2891 15.7894C18.7631 14.8289 18.5001 13.7235 18.5001 12.4734C18.5001 11.1241 18.7592 9.95391 19.2776 8.96291C19.796 7.96428 20.5164 7.19053 21.4388 6.64167C22.3612 6.0928 23.4284 5.81837 24.6405 5.81837C25.9212 5.81837 27.0075 6.11948 27.8994 6.72171C28.7989 7.31631 29.4659 8.15867 29.9004 9.24877C30.335 10.3389 30.4989 11.6234 30.3921 13.1023H27.6592V12.096C27.6516 10.7543 27.4153 9.77477 26.9503 9.1573C26.4853 8.53982 25.7535 8.23109 24.7548 8.23109C23.6266 8.23109 22.7881 8.58175 22.2392 9.28308C21.6903 9.97678 21.4159 10.9945 21.4159 12.3361C21.4159 13.5863 21.6903 14.5545 22.2392 15.2405C22.7881 15.9266 23.5885 16.2697 24.6405 16.2697C25.3189 16.2697 25.9021 16.121 26.39 15.8237C26.8855 15.5188 27.2666 15.0805 27.5335 14.5087L30.2549 15.332C29.7823 16.445 29.0505 17.3102 28.0595 17.9277C27.0761 18.5452 25.9898 18.8539 24.8006 18.8539ZM20.5469 13.1023V11.0211H29.0428V13.1023H20.5469Z" fill="#4F3366"/>
<path d="M30.1992 23.9995V21.4153H30.7823C31.4532 21.4153 31.9296 21.259 32.2117 20.9465C32.4937 20.6339 32.6348 20.1727 32.6348 19.5629V6.16141H35.3791V20.7978C35.3791 21.7964 35.0856 22.5778 34.4986 23.1419C33.9193 23.7136 33.1112 23.9995 32.0745 23.9995H30.1992Z" fill="#4F3366"/>
<path d="M43.9456 4.38904H41.8531L43.6255 0.158203H45.718L43.9456 4.38904ZM41.1556 18.8539C40.2637 18.8539 39.509 18.6862 38.8915 18.3508C38.274 18.0077 37.8052 17.5542 37.485 16.9901C37.1725 16.4259 37.0162 15.8047 37.0162 15.1262C37.0162 14.5316 37.1153 13.998 37.3135 13.5253C37.5117 13.0451 37.8166 12.6334 38.2283 12.2904C38.6399 11.9397 39.1735 11.6539 39.8291 11.4328C40.3246 11.2727 40.904 11.1279 41.5672 10.9983C42.238 10.8687 42.9622 10.7505 43.7398 10.6438C44.525 10.5295 45.3445 10.4075 46.1982 10.2779L45.2149 10.8382C45.2225 9.9844 45.0319 9.3555 44.6431 8.95147C44.2544 8.54745 43.5988 8.34543 42.6764 8.34543C42.1199 8.34543 41.5825 8.47503 41.0641 8.73421C40.5457 8.9934 40.1836 9.43935 39.9778 10.0721L37.4622 9.28308C37.7671 8.23871 38.3464 7.40017 39.2002 6.76745C40.0616 6.13473 41.2204 5.81837 42.6764 5.81837C43.7741 5.81837 44.7384 5.99751 45.5693 6.3558C46.4079 6.71409 47.0292 7.30107 47.4332 8.11674C47.6543 8.55126 47.7877 8.99721 47.8334 9.4546C47.8792 9.90436 47.902 10.3961 47.902 10.9297V18.5109H45.4893V15.8351L45.8895 16.2697C45.333 17.1616 44.6813 17.8172 43.9342 18.2364C43.1947 18.6481 42.2685 18.8539 41.1556 18.8539ZM41.7044 16.6584C42.3295 16.6584 42.8631 16.5479 43.3053 16.3268C43.7474 16.1058 44.0981 15.8351 44.3573 15.515C44.6241 15.1948 44.8032 14.8937 44.8947 14.6116C45.0395 14.261 45.1196 13.8608 45.1348 13.411C45.1577 12.9536 45.1691 12.5839 45.1691 12.3018L46.0153 12.5534C45.1844 12.683 44.4716 12.7973 43.877 12.8964C43.2824 12.9955 42.7717 13.0908 42.3448 13.1823C41.9179 13.2662 41.5405 13.3614 41.2127 13.4682C40.8926 13.5825 40.6219 13.7159 40.4009 13.8684C40.1798 14.0208 40.0083 14.1962 39.8863 14.3944C39.772 14.5926 39.7148 14.8251 39.7148 15.0919C39.7148 15.3968 39.791 15.6674 39.9435 15.9038C40.0959 16.1325 40.317 16.3154 40.6067 16.4526C40.904 16.5898 41.2699 16.6584 41.7044 16.6584Z" fill="#4F3366"/>
<path d="M54.9154 18.8539C53.7796 18.8539 52.7886 18.568 51.9424 17.9963C51.0962 17.4246 50.4406 16.647 49.9756 15.6636C49.5106 14.6802 49.2781 13.5711 49.2781 12.3361C49.2781 11.0859 49.5106 9.97297 49.9756 8.99721C50.4483 8.01383 51.1153 7.24008 51.9767 6.67597C52.8381 6.10424 53.852 5.81837 55.0183 5.81837C56.1923 5.81837 57.1757 6.10424 57.9685 6.67597C58.7689 7.24008 59.3749 8.01383 59.7866 8.99721C60.1982 9.98059 60.4041 11.0936 60.4041 12.3361C60.4041 13.5635 60.1982 14.6726 59.7866 15.6636C59.3749 16.647 58.7613 17.4246 57.9456 17.9963C57.1299 18.568 56.1199 18.8539 54.9154 18.8539ZM55.3385 16.384C56.0779 16.384 56.6725 16.2163 57.1223 15.8809C57.5797 15.5378 57.9113 15.0614 58.1171 14.4516C58.3306 13.8417 58.4373 13.1366 58.4373 12.3361C58.4373 11.5281 58.3306 10.8229 58.1171 10.2207C57.9113 9.61087 57.5873 9.13824 57.1452 8.80282C56.703 8.45978 56.1313 8.28826 55.43 8.28826C54.6905 8.28826 54.0807 8.47122 53.6004 8.83712C53.1202 9.19541 52.7657 9.68329 52.537 10.3008C52.3083 10.9106 52.194 11.5891 52.194 12.3361C52.194 13.0908 52.3045 13.7769 52.5256 14.3944C52.7543 15.0042 53.1011 15.4883 53.5661 15.8466C54.0311 16.2049 54.6219 16.384 55.3385 16.384ZM58.4373 18.5109V9.84338H58.0943V2.04492H60.8729V18.5109H58.4373Z" fill="#4F3366"/>
<path d="M64.7878 23.9995L67.1662 17.4703L67.212 19.3913L61.8262 6.16141H64.6964L68.5155 15.9495H67.7837L71.5 6.16141H74.2557L67.3721 23.9995H64.7878Z" fill="#4F3366"/>
<path d="M33.2415 4.288L32.2144 3.53625L33.1109 2.47177L31.7632 2.10491L32.155 0.884062L33.4434 1.41931L33.3543 0H34.6248L34.5358 1.41931L35.8182 0.884062L36.21 2.10491L34.8682 2.47177L35.7588 3.53625L34.7317 4.288L33.9896 3.10925L33.2415 4.288Z" fill="#4F3366"/>
<path d="M83.992 15L81.9132 13.4222L83.7276 11.1879L81 10.418L81.7931 7.85554L84.4005 8.97896L84.2203 6H86.7917L86.6115 8.97896L89.2069 7.85554L90 10.418L87.2844 11.1879L89.0868 13.4222L87.008 15L85.506 12.5259L83.992 15Z" fill="#4F3366"/>
</svg>
