<svg width="1440" height="1024" viewBox="0 0 1440 1024" fill="none" xmlns="http://www.w3.org/2000/svg">
<g clip-path="url(#clip0_77_520)">
<rect width="1440" height="1024" fill="#F8E4C8"/>
<path d="M795 774.5C648.6 857.3 534.333 761.333 495.5 703H242.5L234.5 1102H1269L1083 774.5C1048 740 941.4 691.7 795 774.5Z" fill="#F2DA9A"/>
<path d="M622 67C912.5 302 662 557.5 566 637C339.391 824.661 310.558 952.567 344.5 1037C354.105 1060.89 362.982 1081.12 371.259 1098.13L552.5 1109.5C474.116 1132.86 449.583 1259.16 371.259 1098.13L-13.5 1074L-30 210.5L622 67Z" fill="#FAEDCC"/>
<path d="M1154 367C1036 208 1141.5 -47 1240 -80L1552.99 -47.5017V1067H1329C1240 1074.5 1105 986.5 1085 895.5C1053.05 750.166 1266.6 518.734 1154 367Z" fill="#EFA291"/>
<path d="M416.5 274C258.003 441.729 71.1667 345.166 -14 274V-139.5C231.833 -145.333 1098 -338.5 976.5 19C872.163 326 622.5 56.0003 416.5 274Z" fill="#FFFAE5"/>
</g>
<defs>
<clipPath id="clip0_77_520">
<rect width="1440" height="1024" fill="white"/>
</clipPath>
</defs>
</svg>
